<svg xmlns="http://www.w3.org/2000/svg" xmlns:xlink="http://www.w3.org/1999/xlink" x="0" y="0" width="702" height="157" style="
        width:702px;
        height:157px;
        background: #FFF;
        fill: none;
">
        <svg xmlns="http://www.w3.org/2000/svg"><g><defs><pattern id=".9063578189593398" width="10" height="10" patternUnits=""><path d="M 10 0 L 0 0 0 10" fill="none" stroke="lightgray" stroke-width="0.5"/></pattern></defs><rect width="100%" height="100%" fill="url(#.9063578189593398)" stroke="lightgray" stroke-width="0.5"/></g></svg>
        
        <svg xmlns="http://www.w3.org/2000/svg" class="role-diagram-draw-area" style="overflow: visible;"><g class="shapes-region" style="stroke: black; fill: none;"><g class="composite-shape"><path class="real" d=" M458,56.5 Q458.02,49.5 451.02,49.48 L345.52,49.24 Q335.52,49.22 335.53,42.22 Q335.52,49.22 325.52,49.2 M328.52,49.21 L220.02,48.96 Q213.02,48.94 213,55.94" style="stroke-width: 1; stroke: rgb(0, 0, 0); fill: none; fill-opacity: 1;"/></g><g class="composite-shape"><path class="real" d=" M212,95.94 Q212.03,102.94 219.03,102.91 L252.03,102.76 Q262.03,102.72 262.06,109.72 Q262.03,102.72 272.03,102.68 M269.03,102.69 L305.03,102.53 Q312.03,102.5 312,95.5" style="stroke-width: 1; stroke: rgb(0, 0, 0); fill: none; fill-opacity: 1;"/></g><g class="composite-shape"><path class="real" d=" M335,99.94 Q335.09,105.29 340.44,105.2 L340.44,105.2 Q348.09,105.07 348.18,110.43 Q348.09,105.07 355.74,104.94 M353.44,104.98 L355.74,104.94 Q361.09,104.85 361,99.5" style="stroke-width: 1; stroke: rgb(0, 0, 0); fill: none; fill-opacity: 1;"/></g><g class="arrow-line"><path class="connection real" stroke-dasharray="" d="  M331,87.5 L326.33,115.53" style="stroke: rgb(0, 0, 0); stroke-width: 1; fill: none; fill-opacity: 1;"/><g stroke="#000" transform="matrix(0.16435900845103685,-0.9864005861418534,0.9864005861418534,0.16435900845103685,326,117.5)" style="stroke: rgb(0, 0, 0); stroke-width: 1;"><path d=" M10.93,-3.29 Q4.96,-0.45 0,0 Q4.96,0.45 10.93,3.29"/></g></g><g class="composite-shape"><path class="real" d=" M373,98.94 Q373.04,105.94 380.04,105.89 L399.04,105.78 Q409.04,105.72 409.09,112.72 Q409.04,105.72 419.04,105.66 M416.04,105.67 L438.04,105.54 Q445.04,105.5 445,98.5" style="stroke-width: 1; stroke: rgb(0, 0, 0); fill: none; fill-opacity: 1;"/></g><g/></g><g/><g/><g/></svg>
        <svg xmlns="http://www.w3.org/2000/svg" xmlns:xlink="http://www.w3.org/1999/xlink" width="700" height="155" style="width:700px;height:155px;font-family:Asana-Math, Asana;background:#FFF;"><g><g><g><text x="215" y="64" style="white-space:pre;stroke:none;fill:rgb(0,0,0);fill-opacity:1;font-size:21.6px;font-family:Arial, Helvetica, sans-serif;font-weight:400;font-style:normal;dominant-baseline:text-before-edge;text-decoration:none solid rgb(0, 0, 0);">VERSION=&quot;11 (bullseye)&quot;</text></g></g></g><g><g><g><g><g><g><g transform="matrix(1,0,0,1,328,33)"><path transform="matrix(0.017,0,0,-0.017,0,0)" d="M260 373L260 633C306 629 333 620 358 604C377 591 381 579 381 542L381 500L413 500C413 554 417 593 426 626C379 653 340 663 260 669C261 700 262 712 264 731L219 731L223 666C172 657 148 649 118 629C61 592 30 532 30 458C30 328 116 309 223 297L223 18C158 25 116 40 88 67C76 79 74 84 74 108L74 172L42 172C39 93 36 63 30 24C95 -2 161 -17 223 -18C221 -82 221 -95 219 -116L264 -116L260 -16C315 -5 341 5 374 27C437 68 471 132 471 207C471 341 375 361 260 373ZM260 292C358 277 392 246 392 173C392 92 340 32 260 18ZM223 379C137 390 105 421 105 494C105 541 121 580 151 604C171 620 187 626 223 630ZM762 689C607 689 528 566 528 324C528 207 549 106 584 57C619 8 675 -20 737 -20C888 -20 964 110 964 366C964 585 899 689 762 689ZM744 654C841 654 880 556 880 316C880 103 842 15 750 15C653 15 612 116 612 360C612 571 649 654 744 654Z" stroke="rgb(0,0,0)" stroke-opacity="1" stroke-width="8" fill="rgb(0,0,0)" fill-opacity="1"></path></g></g></g></g></g></g></g><g><g><g><g><g><g><g transform="matrix(1,0,0,1,254,133)"><path transform="matrix(0.017,0,0,-0.017,0,0)" d="M260 373L260 633C306 629 333 620 358 604C377 591 381 579 381 542L381 500L413 500C413 554 417 593 426 626C379 653 340 663 260 669C261 700 262 712 264 731L219 731L223 666C172 657 148 649 118 629C61 592 30 532 30 458C30 328 116 309 223 297L223 18C158 25 116 40 88 67C76 79 74 84 74 108L74 172L42 172C39 93 36 63 30 24C95 -2 161 -17 223 -18C221 -82 221 -95 219 -116L264 -116L260 -16C315 -5 341 5 374 27C437 68 471 132 471 207C471 341 375 361 260 373ZM260 292C358 277 392 246 392 173C392 92 340 32 260 18ZM223 379C137 390 105 421 105 494C105 541 121 580 151 604C171 620 187 626 223 630ZM917 -3L917 27L865 30C810 33 800 44 800 96L800 700L559 598L566 548L716 614L716 96C716 44 705 33 651 30L595 27L595 -3C749 0 749 0 760 0C791 0 901 -3 917 -3Z" stroke="rgb(0,0,0)" stroke-opacity="1" stroke-width="8" fill="rgb(0,0,0)" fill-opacity="1"></path></g></g></g></g></g></g></g><g><g><g><g><g><g><g transform="matrix(1,0,0,1,341,123)"><path transform="matrix(0.017,0,0,-0.017,0,0)" d="M260 373L260 633C306 629 333 620 358 604C377 591 381 579 381 542L381 500L413 500C413 554 417 593 426 626C379 653 340 663 260 669C261 700 262 712 264 731L219 731L223 666C172 657 148 649 118 629C61 592 30 532 30 458C30 328 116 309 223 297L223 18C158 25 116 40 88 67C76 79 74 84 74 108L74 172L42 172C39 93 36 63 30 24C95 -2 161 -17 223 -18C221 -82 221 -95 219 -116L264 -116L260 -16C315 -5 341 5 374 27C437 68 471 132 471 207C471 341 375 361 260 373ZM260 292C358 277 392 246 392 173C392 92 340 32 260 18ZM223 379C137 390 105 421 105 494C105 541 121 580 151 604C171 620 187 626 223 630ZM961 224C961 345 854 366 807 374C887 436 917 482 917 541C917 630 843 689 732 689C664 689 619 670 571 622L542 498L573 498L591 554C602 588 665 622 717 622C782 622 835 569 835 506C835 431 776 368 705 368C697 368 686 369 673 370L658 371L646 318L653 312C691 329 710 334 737 334C820 334 868 281 868 190C868 88 807 21 714 21C668 21 627 36 597 64C573 86 560 109 541 163L514 153C535 92 543 56 549 6C602 -12 646 -20 683 -20C806 -20 961 87 961 224Z" stroke="rgb(0,0,0)" stroke-opacity="1" stroke-width="8" fill="rgb(0,0,0)" fill-opacity="1"></path></g></g></g></g></g></g></g><g><g><g><g><g><g><g transform="matrix(1,0,0,1,316,135)"><path transform="matrix(0.017,0,0,-0.017,0,0)" d="M260 373L260 633C306 629 333 620 358 604C377 591 381 579 381 542L381 500L413 500C413 554 417 593 426 626C379 653 340 663 260 669C261 700 262 712 264 731L219 731L223 666C172 657 148 649 118 629C61 592 30 532 30 458C30 328 116 309 223 297L223 18C158 25 116 40 88 67C76 79 74 84 74 108L74 172L42 172C39 93 36 63 30 24C95 -2 161 -17 223 -18C221 -82 221 -95 219 -116L264 -116L260 -16C315 -5 341 5 374 27C437 68 471 132 471 207C471 341 375 361 260 373ZM260 292C358 277 392 246 392 173C392 92 340 32 260 18ZM223 379C137 390 105 421 105 494C105 541 121 580 151 604C171 620 187 626 223 630ZM515 23L515 -3C702 -3 702 0 738 0C774 0 774 -3 967 -3L967 82C852 77 806 81 621 77L803 270C900 373 930 428 930 503C930 618 852 689 725 689C653 689 604 669 555 619L538 483L567 483L580 529C596 587 632 612 699 612C785 612 840 558 840 473C840 398 798 324 685 204Z" stroke="rgb(0,0,0)" stroke-opacity="1" stroke-width="8" fill="rgb(0,0,0)" fill-opacity="1"></path></g></g></g></g></g></g></g><g><g><g><g><g><g><g transform="matrix(1,0,0,1,401,133)"><path transform="matrix(0.017,0,0,-0.017,0,0)" d="M260 373L260 633C306 629 333 620 358 604C377 591 381 579 381 542L381 500L413 500C413 554 417 593 426 626C379 653 340 663 260 669C261 700 262 712 264 731L219 731L223 666C172 657 148 649 118 629C61 592 30 532 30 458C30 328 116 309 223 297L223 18C158 25 116 40 88 67C76 79 74 84 74 108L74 172L42 172C39 93 36 63 30 24C95 -2 161 -17 223 -18C221 -82 221 -95 219 -116L264 -116L260 -16C315 -5 341 5 374 27C437 68 471 132 471 207C471 341 375 361 260 373ZM260 292C358 277 392 246 392 173C392 92 340 32 260 18ZM223 379C137 390 105 421 105 494C105 541 121 580 151 604C171 620 187 626 223 630ZM779 181L779 106C779 46 768 32 719 30L657 27L657 -3C790 0 790 0 814 0C838 0 838 0 971 -3L971 27L923 30C874 33 863 46 863 106L863 181C922 181 943 180 971 177L971 248L863 245L864 697L784 667L501 204L501 181ZM779 245L564 245L779 597Z" stroke="rgb(0,0,0)" stroke-opacity="1" stroke-width="8" fill="rgb(0,0,0)" fill-opacity="1"></path></g></g></g></g></g></g></g></svg>
</svg>