<svg xmlns="http://www.w3.org/2000/svg" xmlns:xlink="http://www.w3.org/1999/xlink" x="0" y="0" width="702" height="157" style="
        width:702px;
        height:157px;
        background: #FFF;
        fill: none;
">
        <svg xmlns="http://www.w3.org/2000/svg" class="role-diagram-draw-area" style="overflow: visible;"><g class="shapes-region" style="stroke: black; fill: none;"><g class="composite-shape"><path class="real" d=" M489,55.94 Q489,48.94 482,48.94 L361,48.94 Q351,48.94 351,41.94 Q351,48.94 341,48.94 M344,48.94 L220,48.94 Q213,48.94 213,55.94" style="stroke-width: 1; stroke: rgb(0, 0, 0); fill: none; fill-opacity: 1;"/></g><g class="composite-shape"><path class="real" d=" M212,95.94 Q212,102.94 219,102.94 L235.5,102.94 Q245.5,102.94 245.5,109.94 Q245.5,102.94 255.5,102.94 M252.5,102.94 L272,102.94 Q279,102.94 279,95.94" style="stroke-width: 1; stroke: rgb(0, 0, 0); fill: none; fill-opacity: 1;"/></g><g class="composite-shape"><path class="real" d=" M294,97.94 Q294,104.94 301,104.94 L382,104.94 Q392,104.94 392,111.94 Q392,104.94 402,104.94 M399,104.94 L483,104.94 Q490,104.94 490,97.94" style="stroke-width: 1; stroke: rgb(0, 0, 0); fill: none; fill-opacity: 1;"/></g><g/></g><g/><g/><g/></svg>
        <svg xmlns="http://www.w3.org/2000/svg" xmlns:xlink="http://www.w3.org/1999/xlink" width="700" height="155" style="width:700px;height:155px;font-family:Asana-Math, Asana;background:#FFF;"><g><g><g><text x="215" y="67" style="white-space:pre;stroke:none;fill:rgb(0,0,0);fill-opacity:1;font-size:21.6px;font-family:Arial, Helvetica, sans-serif;font-weight:400;font-style:normal;dominant-baseline:text-before-edge;text-decoration:none solid rgb(0, 0, 0);">NAME=&quot;Debian GNU/Linux&quot;</text></g></g></g><g><g><g><g><g><g><g transform="matrix(1,0,0,1,341,31)"><path transform="matrix(0.017,0,0,-0.017,0,0)" d="M260 373L260 633C306 629 333 620 358 604C377 591 381 579 381 542L381 500L413 500C413 554 417 593 426 626C379 653 340 663 260 669C261 700 262 712 264 731L219 731L223 666C172 657 148 649 118 629C61 592 30 532 30 458C30 328 116 309 223 297L223 18C158 25 116 40 88 67C76 79 74 84 74 108L74 172L42 172C39 93 36 63 30 24C95 -2 161 -17 223 -18C221 -82 221 -95 219 -116L264 -116L260 -16C315 -5 341 5 374 27C437 68 471 132 471 207C471 341 375 361 260 373ZM260 292C358 277 392 246 392 173C392 92 340 32 260 18ZM223 379C137 390 105 421 105 494C105 541 121 580 151 604C171 620 187 626 223 630ZM762 689C607 689 528 566 528 324C528 207 549 106 584 57C619 8 675 -20 737 -20C888 -20 964 110 964 366C964 585 899 689 762 689ZM744 654C841 654 880 556 880 316C880 103 842 15 750 15C653 15 612 116 612 360C612 571 649 654 744 654Z" stroke="rgb(0,0,0)" stroke-opacity="1" stroke-width="8" fill="rgb(0,0,0)" fill-opacity="1"></path></g></g></g></g></g></g></g><g><g><g><g><g><g><g transform="matrix(1,0,0,1,238,133)"><path transform="matrix(0.017,0,0,-0.017,0,0)" d="M260 373L260 633C306 629 333 620 358 604C377 591 381 579 381 542L381 500L413 500C413 554 417 593 426 626C379 653 340 663 260 669C261 700 262 712 264 731L219 731L223 666C172 657 148 649 118 629C61 592 30 532 30 458C30 328 116 309 223 297L223 18C158 25 116 40 88 67C76 79 74 84 74 108L74 172L42 172C39 93 36 63 30 24C95 -2 161 -17 223 -18C221 -82 221 -95 219 -116L264 -116L260 -16C315 -5 341 5 374 27C437 68 471 132 471 207C471 341 375 361 260 373ZM260 292C358 277 392 246 392 173C392 92 340 32 260 18ZM223 379C137 390 105 421 105 494C105 541 121 580 151 604C171 620 187 626 223 630ZM917 -3L917 27L865 30C810 33 800 44 800 96L800 700L559 598L566 548L716 614L716 96C716 44 705 33 651 30L595 27L595 -3C749 0 749 0 760 0C791 0 901 -3 917 -3Z" stroke="rgb(0,0,0)" stroke-opacity="1" stroke-width="8" fill="rgb(0,0,0)" fill-opacity="1"></path></g></g></g></g></g></g></g><g><g><g><g><g><g><g transform="matrix(1,0,0,1,386,132)"><path transform="matrix(0.017,0,0,-0.017,0,0)" d="M260 373L260 633C306 629 333 620 358 604C377 591 381 579 381 542L381 500L413 500C413 554 417 593 426 626C379 653 340 663 260 669C261 700 262 712 264 731L219 731L223 666C172 657 148 649 118 629C61 592 30 532 30 458C30 328 116 309 223 297L223 18C158 25 116 40 88 67C76 79 74 84 74 108L74 172L42 172C39 93 36 63 30 24C95 -2 161 -17 223 -18C221 -82 221 -95 219 -116L264 -116L260 -16C315 -5 341 5 374 27C437 68 471 132 471 207C471 341 375 361 260 373ZM260 292C358 277 392 246 392 173C392 92 340 32 260 18ZM223 379C137 390 105 421 105 494C105 541 121 580 151 604C171 620 187 626 223 630ZM515 23L515 -3C702 -3 702 0 738 0C774 0 774 -3 967 -3L967 82C852 77 806 81 621 77L803 270C900 373 930 428 930 503C930 618 852 689 725 689C653 689 604 669 555 619L538 483L567 483L580 529C596 587 632 612 699 612C785 612 840 558 840 473C840 398 798 324 685 204Z" stroke="rgb(0,0,0)" stroke-opacity="1" stroke-width="8" fill="rgb(0,0,0)" fill-opacity="1"></path></g></g></g></g></g></g></g></svg>
</svg>
